<?xml version="1.0" encoding="UTF-8"?><svg id="_layer_1" xmlns="http://www.w3.org/2000/svg" viewBox="0 0 260.1 143.53"><defs><style>.cls-1{fill:#619c98;}.cls-2{stroke:#da673e;}.cls-2,.cls-3{fill:none;stroke-linecap:round;stroke-linejoin:round;stroke-width:5px;}.cls-3{stroke:#619c98;}.cls-4{fill:#231815;}</style></defs><path class="cls-4" d="M76.65,95.99c-1.17,19.56-13.88,29.82-38.15,30.79C14.23,125.57,1.4,115.31,0,95.99c1.17-20.04,14-30.42,38.5-31.15,23.8,1.21,36.51,11.59,38.15,31.15Zm-19.25,0c-.47-12.55-6.88-19.07-19.25-19.56-12.6,.72-19.25,7.24-19.95,19.56,.46,12.31,7,18.83,19.6,19.56,12.83-.24,19.36-6.76,19.6-19.56Z"/><g><path class="cls-2" d="M102.14,4h50.22c15.8,0,29.04,12.5,29.34,28.29s-12.75,29.42-28.86,29.42h-27.24c-1.82,3.67-5.79,6.09-10.27,5.59s-8.41-4.27-8.93-8.92c-.69-6.13,4.1-11.33,10.1-11.33,3.99,0,7.45,2.31,9.1,5.66h26.85c11.11,0,20.43-9.09,20.24-20.2-.19-10.79-9.02-19.51-19.85-19.51h-54.81V121.76c3.68,1.82,6.1,5.8,5.59,10.29s-4.29,8.41-8.95,8.92c-6.13,.67-11.31-4.11-11.31-10.1,0-3.99,2.31-7.45,5.66-9.11V10.78c0-4.57-3.71-8.28-8.28-8.28h-10.54"/><path class="cls-3" d="M102.14,4h50.22c15.8,0,29.04,12.5,29.34,28.29s-12.75,29.42-28.86,29.42h-27.24c-1.82,3.67-5.79,6.09-10.27,5.59s-8.41-4.27-8.93-8.92c-.69-6.13,4.1-11.33,10.1-11.33,3.99,0,7.45,2.31,9.1,5.66h26.85c11.11,0,20.43-9.09,20.24-20.2-.19-10.79-9.02-19.51-19.85-19.51h-54.81V121.76c3.68,1.82,6.1,5.8,5.59,10.29s-4.29,8.41-8.95,8.92c-6.13,.67-11.31-4.11-11.31-10.1,0-3.99,2.31-7.45,5.66-9.11V10.78c0-4.57-3.71-8.28-8.28-8.28h-10.54"/></g><path class="cls-4" d="M260.06,97.48c-.45-17.85-13.95-26.89-40.5-27.11h-17.42c-3.13,0-5.67,2.54-5.67,5.67v49.89h17.07v-45.52h5.69c14.95,.22,22.65,5.92,23.1,17.07,0,12.27-7.7,18.41-23.1,18.41h-.29l1.63,10.04c27.22,.45,40.38-9.04,39.49-28.45Z"/><g><polygon class="cls-4" points="183.69 92.46 151.33 92.46 153.32 102.83 183.69 102.83 183.69 92.46"/><path class="cls-4" d="M146.2,115.89v-35.48h40.16v-10.04h-51.23c-3.13,0-5.67,2.54-5.67,5.67v49.89h57.9v-10.04h-41.17Z"/></g><path class="cls-1" d="M51.85,97.08c0,8.08-7.24,14.63-16.18,14.63s-3.17-6.55-3.17-14.63-5.77-14.63,3.17-14.63,16.18,6.55,16.18,14.63Z"/></svg>