<?xml version="1.0" encoding="utf-8"?>
<!-- Generator: Adobe Illustrator 26.3.1, SVG Export Plug-In . SVG Version: 6.00 Build 0)  -->
<svg version="1.1" id="Layer_1" xmlns="http://www.w3.org/2000/svg" xmlns:xlink="http://www.w3.org/1999/xlink" x="0px" y="0px"
	 viewBox="0 0 398 160" style="enable-background:new 0 0 398 160;" xml:space="preserve">
<style type="text/css">
	.st0{fill:#619C98;}
	.st1{fill:#FFFFFF;}
	.st2{fill:#B5B5B6;}
	.st3{fill:none;stroke:#DA673E;stroke-width:5;stroke-linecap:round;stroke-linejoin:round;stroke-miterlimit:10;}
	.st4{fill:none;stroke:#619C98;stroke-width:5;stroke-linecap:round;stroke-linejoin:round;stroke-miterlimit:10;}
</style>
<path class="st0" d="M331.4,132.61c-26.66,0-48.28-20.5-48.28-45.79s21.62-8.97,48.28-8.97c26.66,0,48.28-16.32,48.28,8.97
	S358.07,132.61,331.4,132.61z"/>
<g>
	<path class="st1" d="M325.72,86.05l-3.78,0.64l-9.89,29.63h-3.1l-10.74-29.8l-3.23-0.34v-1.53h14.01v1.49l-4.41,0.47l7.89,23.39
		l7.13-23.26l-4.37-0.59v-1.49h10.48V86.05z"/>
	<path class="st1" d="M346.81,113.85c-1.1,2.12-2.59,2.93-4.84,2.93c-2.59,0-4.07-1.44-4.63-3.73c-2.33,2.46-3.99,3.78-7.13,3.78
		c-3.56,0-6.15-2.12-6.15-5.69c0-3.52,1.95-5.6,8.49-7.64c1.27-0.42,2.97-0.89,4.63-1.27v-2.16c0-4.5-1.15-5.73-4.33-5.73
		c-0.72,0-1.44,0.09-2.21,0.26l-0.59,3.06c-0.17,2.33-1.32,3.27-2.76,3.27c-1.4,0-2.29-0.68-2.55-1.95c0.55-3.82,4.07-6.2,9.97-6.2
		c5.56,0,7.89,2.42,7.89,8.36v10.95c0,1.91,0.59,2.55,1.53,2.55c0.64,0,1.15-0.38,1.91-1.4L346.81,113.85z M337.18,103.45
		c-1.27,0.38-2.46,0.72-3.18,1.02c-3.35,1.32-4.63,3.27-4.63,5.9c0,2.5,1.36,3.69,3.4,3.69c1.4,0,2.46-0.64,4.41-2.25V103.45z"/>
	<path class="st1" d="M357.25,99.08c1.36-4.07,4.2-6.32,6.75-6.32c1.78,0,3.31,0.72,3.82,2.72c-0.13,1.91-0.93,3.23-2.93,3.23
		c-1.4,0-2.29-0.81-3.35-2.04l-0.47-0.51c-1.78,1.4-2.93,3.27-3.82,6.24v3.78c0,2.29,0.04,5.73,0.09,8.15l3.9,0.51v1.32h-12.78
		v-1.32l3.1-0.38c0.04-2.42,0.08-5.94,0.08-8.28v-3.06c0-2.76-0.04-4.29-0.17-6.32l-3.35-0.34v-1.06l8.15-2.59l0.59,0.38
		L357.25,99.08z"/>
</g>
<g>
	<path class="st2" d="M84.96,101.73c-1.17,19.56-13.88,29.82-38.15,30.79c-24.27-1.21-37.1-11.47-38.5-30.79
		c1.17-20.04,14-30.42,38.5-31.15C70.61,71.79,83.33,82.17,84.96,101.73z M65.71,101.73c-0.47-12.55-6.88-19.07-19.25-19.56
		c-12.6,0.72-19.25,7.24-19.95,19.56c0.46,12.31,7,18.83,19.6,19.56C58.94,121.05,65.48,114.53,65.71,101.73z"/>
</g>
<g>
	<g>
		<g>
			<path class="st3" d="M110.46,9.74h50.22c15.8,0,29.04,12.5,29.34,28.29c0.31,16.17-12.75,29.42-28.86,29.42h-27.24
				c-1.82,3.67-5.79,6.09-10.27,5.59c-4.65-0.52-8.41-4.27-8.93-8.92c-0.69-6.13,4.1-11.33,10.1-11.33c3.99,0,7.45,2.31,9.1,5.66
				h26.85c11.11,0,20.43-9.09,20.24-20.2c-0.19-10.79-9.02-19.51-19.85-19.51h-54.81v0.23V127.5c3.68,1.82,6.1,5.8,5.59,10.29
				c-0.53,4.65-4.29,8.41-8.95,8.92c-6.13,0.67-11.31-4.11-11.31-10.1c0-3.99,2.31-7.45,5.66-9.11V16.51c0-4.57-3.71-8.28-8.28-8.28
				H78.53"/>
		</g>
	</g>
	<g>
		<g>
			<path class="st4" d="M110.46,9.74h50.22c15.8,0,29.04,12.5,29.34,28.29c0.31,16.17-12.75,29.42-28.86,29.42h-27.24
				c-1.82,3.67-5.79,6.09-10.27,5.59c-4.65-0.52-8.41-4.27-8.93-8.92c-0.69-6.13,4.1-11.33,10.1-11.33c3.99,0,7.45,2.31,9.1,5.66
				h26.85c11.11,0,20.43-9.09,20.24-20.2c-0.19-10.79-9.02-19.51-19.85-19.51h-54.81v0.23V127.5c3.68,1.82,6.1,5.8,5.59,10.29
				c-0.53,4.65-4.29,8.41-8.95,8.92c-6.13,0.67-11.31-4.11-11.31-10.1c0-3.99,2.31-7.45,5.66-9.11V16.51c0-4.57-3.71-8.28-8.28-8.28
				H78.53"/>
		</g>
	</g>
</g>
<path class="st2" d="M268.37,103.21c-0.45-17.85-13.95-26.89-40.5-27.11h-17.42c-3.13,0-5.67,2.54-5.67,5.67v49.89h17.07v-10.04
	v-9.37v-26.1h5.69c14.95,0.22,22.65,5.92,23.1,17.07c0,12.27-7.7,18.41-23.1,18.41h-0.29l1.63,10.04
	C256.1,132.11,269.26,122.63,268.37,103.21z"/>
<g>
	<polygon class="st2" points="192,98.19 159.65,98.19 161.64,108.57 192,108.57 	"/>
	<path class="st2" d="M154.52,121.62v-9v-4.06V98.19V97V86.15h40.16V76.1h-51.23c-3.13,0-5.67,2.54-5.67,5.67v49.89h57.9v-10.04
		H154.52z"/>
</g>
<path class="st0" d="M60.17,102.82c0,8.08-7.24,14.63-16.18,14.63s-3.17-6.55-3.17-14.63s-5.77-14.63,3.17-14.63
	S60.17,94.74,60.17,102.82z"/>
</svg>
